<?xml version="1.0" encoding="UTF-8"?> <svg xmlns="http://www.w3.org/2000/svg" width="115" height="30" viewBox="0 0 115 30" fill="none"><path d="M5.68714 15.3707C5.95555 14.2859 6.52989 13.9518 7.40006 14.0196C8.2457 14.0874 9.10144 14.0329 10.2992 14.0329C9.4853 16.1314 8.77819 17.9555 8.00615 19.9498H19.975C17.1494 13.5467 14.4148 7.35023 11.5893 0.948718C13.1161 0.948718 14.4047 0.902414 15.6876 0.983446C15.982 1.00329 16.3803 1.38034 16.526 1.70942C20.3228 10.3004 24.0921 18.9064 27.8599 27.5139C27.9595 27.7421 27.997 28.0084 28.1283 28.4962C26.7285 28.4962 25.4514 28.5607 24.1844 28.4499C23.8828 28.4235 23.4658 27.8678 23.3647 27.4693C22.6331 24.6166 21.0111 23.9287 18.5146 24.1188C14.803 24.4016 11.0611 24.2098 7.33368 24.1784C6.53566 24.1701 6.08254 24.4049 5.71889 25.3178C4.42734 28.5706 4.38837 28.5508 1.25691 28.5094C0.916348 28.5028 0.575785 28.4631 0 28.4218C1.93371 23.9832 3.7895 19.72 5.68714 15.3625V15.3707Z" fill="url(#paint0_linear_4741_50266)"></path><path d="M112.436 22.6899C113.279 24.6032 114.079 26.4223 115.001 28.5093C113.475 28.5093 112.229 28.5721 110.995 28.4663C110.683 28.4398 110.234 27.9288 110.142 27.5468C109.422 24.5966 107.735 23.9384 105.208 24.1237C101.533 24.3965 97.8326 24.2146 94.1427 24.1782C93.3086 24.17 92.8151 24.3899 92.4312 25.3606C91.1584 28.5854 91.1094 28.5639 87.9476 28.5093C87.6142 28.5027 87.2809 28.4498 86.7715 28.4002C87.8307 25.9212 88.8134 23.5978 89.812 21.2892C90.6966 19.2452 91.6433 17.2326 92.4774 15.1572C92.8324 14.2742 93.3115 13.9633 94.1196 14.0178C94.9696 14.0741 95.8253 14.0311 97.0303 14.0311C96.2236 16.123 95.5194 17.9437 94.7473 19.948H106.709C103.888 13.5548 101.156 7.36165 98.3276 0.953521C99.8803 0.953521 101.207 0.915486 102.525 0.986595C102.784 0.999825 103.124 1.38018 103.257 1.69273C106.318 8.65154 109.357 15.6236 112.436 22.6833H112.435V22.6899H112.436Z" fill="url(#paint1_linear_4741_50266)"></path><path d="M75.747 10.859C77.0126 8.01957 78.2378 5.2678 79.4456 2.50776C79.7501 1.8132 80.1167 1.40308 80.8829 1.46757C81.9292 1.55687 82.984 1.48907 84.15 1.48907C84.062 1.93557 84.0591 2.24812 83.9466 2.5028C80.1816 11.1054 76.4152 19.703 72.6228 28.2841C72.4771 28.6149 72.0831 28.9969 71.7887 29.0167C70.5029 29.0978 69.2143 29.0515 67.6875 29.0515C70.4178 22.8831 73.0586 16.9116 75.747 10.8557V10.859Z" fill="url(#paint2_linear_4741_50266)"></path><path d="M36.5136 9.63047C35.6694 9.70819 35.2148 9.47171 34.88 8.56879C34.0301 6.27674 33.0315 4.05912 32.0098 1.61328H52.9386C52.9386 2.71796 53.005 3.87225 52.8895 5.00504C52.8636 5.25971 52.2012 5.60369 51.8303 5.60699C47.7464 5.64999 43.6611 5.63345 39.5772 5.63345H37.9263C38.4516 7.03249 38.8831 8.18347 39.4243 9.62716H36.5107H36.5121V9.63047H36.5136Z" fill="url(#paint3_linear_4741_50266)"></path><path d="M52.1724 28.5213C45.781 28.5213 39.5022 28.5014 33.222 28.5428C32.2652 28.5494 31.9174 28.26 31.9449 27.109C32.0127 24.0199 31.7573 24.3854 34.3808 24.3837C40.0333 24.3754 45.6843 24.3837 51.3368 24.3837C52.5634 24.3837 53.1753 25.108 53.1753 26.5583C53.1753 26.8742 53.1536 27.19 53.1811 27.5042C53.2402 28.2666 52.9372 28.5891 52.1767 28.5279V28.5213H52.1724Z" fill="url(#paint4_linear_4741_50266)"></path><path d="M38.3333 12.8335H51.5604C51.5604 14.0821 51.6268 15.2347 51.5085 16.3609C51.4825 16.6123 50.8129 16.9496 50.4363 16.9562C46.3163 16.9992 42.1978 16.9827 38.0793 16.9827C36.6665 16.9827 35.2538 16.9678 33.841 16.9893C33.1094 17.0025 32.7587 16.6784 32.776 15.797C32.8409 12.2398 32.3618 12.9013 35.2725 12.8368C36.2538 12.8153 37.2322 12.8352 38.3318 12.8352H38.3347L38.3333 12.8335Z" fill="url(#paint5_linear_4741_50266)"></path><path d="M66.5206 15.6695C66.9766 16.7047 67.4023 17.6456 67.9463 18.8562C66.6187 18.8562 65.5075 18.8975 64.4021 18.8231C64.1756 18.8099 63.8927 18.4196 63.7629 18.1285C61.3789 12.7854 59.0137 7.43068 56.65 2.07762C56.6211 2.01312 56.6558 1.91059 56.663 1.71546C57.6702 1.71546 58.6919 1.63442 59.6934 1.75845C60.0542 1.80476 60.4972 2.26614 60.6834 2.6713C62.643 6.95772 64.558 11.2689 66.522 15.6662H66.5206V15.6695Z" fill="url(#paint6_linear_4741_50266)"></path><defs><linearGradient id="paint0_linear_4741_50266" x1="-8.51857" y1="37.269" x2="9.32039" y2="-36.3992" gradientUnits="userSpaceOnUse"><stop stop-color="#2F6873"></stop><stop offset="1" stop-color="#59C4D9"></stop></linearGradient><linearGradient id="paint1_linear_4741_50266" x1="-8.51857" y1="37.269" x2="9.32039" y2="-36.3992" gradientUnits="userSpaceOnUse"><stop stop-color="#2F6873"></stop><stop offset="1" stop-color="#59C4D9"></stop></linearGradient><linearGradient id="paint2_linear_4741_50266" x1="-8.51857" y1="37.269" x2="9.32039" y2="-36.3992" gradientUnits="userSpaceOnUse"><stop stop-color="#2F6873"></stop><stop offset="1" stop-color="#59C4D9"></stop></linearGradient><linearGradient id="paint3_linear_4741_50266" x1="-8.51857" y1="37.269" x2="9.32039" y2="-36.3992" gradientUnits="userSpaceOnUse"><stop stop-color="#2F6873"></stop><stop offset="1" stop-color="#59C4D9"></stop></linearGradient><linearGradient id="paint4_linear_4741_50266" x1="-8.51857" y1="37.269" x2="9.32039" y2="-36.3992" gradientUnits="userSpaceOnUse"><stop stop-color="#2F6873"></stop><stop offset="1" stop-color="#59C4D9"></stop></linearGradient><linearGradient id="paint5_linear_4741_50266" x1="-8.51857" y1="37.269" x2="9.32039" y2="-36.3992" gradientUnits="userSpaceOnUse"><stop stop-color="#2F6873"></stop><stop offset="1" stop-color="#59C4D9"></stop></linearGradient><linearGradient id="paint6_linear_4741_50266" x1="-8.51857" y1="37.269" x2="9.32039" y2="-36.3992" gradientUnits="userSpaceOnUse"><stop stop-color="#2F6873"></stop><stop offset="1" stop-color="#59C4D9"></stop></linearGradient></defs></svg> 